# xmcd
#
# Track frame offsets:
#	182
#	45567
#	90130
#	117390
#	133982
#	169802
#	216482
#	236335
#	267120
#	287712
#
# Disc length: 4415
#
# Revision: 1
# Processed by: cddbd v1.5.1PL0 Copyright (c) Steve Scherf et al.
# Submitted via: CDex 1.51
# Normalized: r0:TDELIM( - ),TSWAP
#
DISCID=8d113d0a
DTITLE=Various Artist - Cool Sounds from a Hot Club
DYEAR=1996
DGENRE=Jazz
TTITLE0=George Coleman - Moment's Notice
TTITLE1=Roy Ayers - Pete King
TTITLE2=Chico Freeman and Arthur Blythe - You Are Too Beautiful
TTITLE3=Marion Montgomery - Love Dance
TTITLE4=Irakere - Las Margaritas
TTITLE5=Chico Freeman and Arthur Blythe - Luminous
TTITLE6=Ruth Brown - Loverman
TTITLE7=Arturo Sandoval/Chucho Valdes Quartet - Blues 88
TTITLE8=Ronnie Scott's Quintet - I'm Glad There Is You
TTITLE9=Sonny Stitt - My Mother's Eyes
EXTD=YEAR: 1996
EXTT0=
EXTT1=
EXTT2=
EXTT3=
EXTT4=
EXTT5=
EXTT6=
EXTT7=
EXTT8=
EXTT9=
PLAYORDER=
